<svg xmlns="http://www.w3.org/2000/svg" version="1.1" xmlns:xlink="http://www.w3.org/1999/xlink" xmlns:svgjs="http://svgjs.dev/svgjs" width="2000" height="1500" viewBox="0 0 2000 1500"><rect width="2000" height="1500" fill="#000000"></rect><g transform="matrix(0.75,0,0,0.75,250,0)"><svg viewBox="0 0 280 280" data-background-color="#0023ff" preserveAspectRatio="xMidYMid meet" height="2000" width="2000" xmlns="http://www.w3.org/2000/svg" xmlns:xlink="http://www.w3.org/1999/xlink"><g id="tight-bounds" transform="matrix(1,0,0,1,0,0)"><svg viewBox="0 0 280 280" height="280" width="280"><g><svg viewBox="0 0 280 280" height="280" width="280"><g><svg viewBox="0 0 280 280" height="280" width="280"><g id="textblocktransform"><svg viewBox="0 0 280 280" height="280" width="280" id="textblock"><g><svg viewBox="0 0 280 280" height="280" width="280"><g transform="matrix(1,0,0,1,74.00336708925556,86.9210713054162)"><svg viewBox="0 0 131.99326582148888 106.15785738916757" height="106.15785738916757" width="131.99326582148888"><g><svg xmlns="http://www.w3.org/2000/svg" xmlns:xlink="http://www.w3.org/1999/xlink" version="1.1" x="0" y="0" viewBox="0 9.786 100.00034525290006 80.42699999999999" enable-background="new 0 0 100 100" xml:space="preserve" width="131.99326582148888" height="106.15785738916757" class="icon-kg-0" data-fill-palette-color="accent" id="kg-0"><path d="M49.942 52.994c13.552-0.488 27.103-0.977 40.653-1.465-2.527-4.177-3.159-7.831-7.989-8.461-7.229-0.94-14.458-1.883-21.688-2.826-14.023-1.827-28.05-3.654-42.075-5.48C20.101 36.792 39.724 53.361 49.942 52.994z" fill="#ffffff" data-fill-palette-color="accent"></path><path d="M0 9.786c4.391 7.257 26.615 23.072 32.953 23.886 17.33 2.231 34.657 4.46 51.986 6.688-3.393-5.607-4.18-9.35-10.312-10.959-8.904-2.341-17.812-4.683-26.717-7.023C31.94 18.182 15.97 13.984 0 9.786z" fill="#ffffff" data-fill-palette-color="accent"></path><path d="M63.108 66.207c10.413-2.219 20.826-4.439 31.241-6.66-2.028-3.346-2.034-5.359-5.827-5.189-6.158 0.273-12.314 0.549-18.471 0.822-11.343 0.506-22.686 1.014-34.028 1.518C37.298 58.064 54.94 67.947 63.108 66.207z" fill="#ffffff" data-fill-palette-color="accent"></path><path d="M87.682 90.213c5.725-3.719 7.262-7.721 10.519-13.807 3.651-6.824 1.257-7.844-2.821-14.596-0.417-0.688-5.842 0.232-6.453 0.904-0.745 0.818-0.248 5.455-0.294 6.496C88.315 76.211 87.998 83.213 87.682 90.213z" fill="#ffffff" data-fill-palette-color="accent"></path><path d="M86.35 63.447c-3.795 0.809-8.604 0.191-9.572 4.229-1.373 5.736-2.746 11.475-4.12 17.211C81.904 82.678 86.028 71.582 86.35 63.447z" fill="#ffffff" data-fill-palette-color="accent"></path><path d="M74.666 66.121c-9.148 1.953-8.956 4.611-12.879 13.18C68.007 78.711 73.811 71.941 74.666 66.121z" fill="#ffffff" data-fill-palette-color="accent"></path></svg></g></svg></g><g><path d="M31.747 103.627c-0.133 0.456-0.448 0.675-0.945 0.656v0l-1.622-0.035c-2.309 0.023-4.24-0.032-5.792-0.164v0c-0.852-0.046-2.024-0.141-3.517-0.284v0c-1.74-0.159-3.164-0.251-4.273-0.276v0l0.104 0.397 0.073 0.503 13.22 3.789 0.511 0.149c0.456 0.133 0.625 0.406 0.504 0.817v0c-0.054 0.186-0.156 0.317-0.303 0.393-0.15 0.082-0.305 0.099-0.465 0.052v0l-0.511-0.149-6.904-2.09-3.297-1.037c-3.972-1.258-7.363-2.298-10.172-3.118v0l-4.426-1.293c-0.206-0.06-0.248-0.296-0.128-0.707v0c0.175-0.598 0.498-1.107 0.969-1.527 0.472-0.42 1.024-0.699 1.657-0.835v0c1.299-0.29 2.61-0.242 3.935 0.145v0c1.054 0.308 2.132 0.87 3.232 1.687v0c0.299 0.241 0.641 0.529 1.025 0.865 0.39 0.337 0.642 0.61 0.755 0.817v0c1.896 0.031 4.806 0.124 8.73 0.28v0l6.632 0.189c0.078-0.005 0.207 0.019 0.387 0.072v0c0.206 0.06 0.37 0.154 0.494 0.28 0.132 0.122 0.174 0.264 0.127 0.424zM14.635 104.133c0.054-0.186-0.071-0.558-0.375-1.115-0.309-0.565-0.586-0.98-0.829-1.246v0c-0.274-0.255-0.713-0.533-1.316-0.835-0.611-0.297-1.167-0.519-1.668-0.665v0c-0.939-0.274-1.942-0.397-3.012-0.367v0c-0.619-0.006-1.152 0.099-1.599 0.317-0.447 0.218-0.728 0.52-0.841 0.906v0l-0.019 0.068c0.012 0.031 0.011 0.07-0.002 0.114v0z" fill="#ffffff" data-fill-palette-color="primary"></path><path d="M44.209 78.628c-0.036 0.057-0.125 0.111-0.269 0.163-0.144 0.052-0.252 0.067-0.325 0.044v0c-0.367-0.485-2.073-1.685-5.116-3.602v0c-0.584-0.368-1.439-0.863-2.566-1.486v0l-2.239-1.196-0.503-0.067-0.307-0.324c-0.356-0.05-0.944-0.167-1.762-0.35-0.816-0.174-1.644-0.355-2.483-0.543v0c-2.367-0.477-4.044-0.873-5.034-1.188v0c-0.477-0.134-0.906-0.278-1.285-0.429v0l-0.063-0.634c0.168-0.179 0.995-0.066 2.481 0.34v0c1.079 0.26 2.126 0.539 3.14 0.838v0l1.378 0.357c1.481 0.426 2.291 0.572 2.43 0.439v0l-0.469-0.462-0.19-0.037c-0.095-0.289-0.682-0.94-1.762-1.952v0c-1.247-1.149-2.275-2.149-3.085-3v0c-0.963-0.971-1.363-1.587-1.199-1.847v0c0.064-0.102 0.15-0.175 0.256-0.219 0.116-0.046 0.213-0.044 0.293 0.006v0c0.3 0.189 1.297 1.24 2.989 3.153v0c0.802 0.925 1.57 1.761 2.303 2.507v0c0.881 0.888 1.724 1.585 2.529 2.092v0c0.259 0.029 0.459 0.087 0.601 0.177v0c0.102 0.064 0.226 0.182 0.371 0.352v0c0.142 0.177 0.273 0.302 0.392 0.378v0c0.102 0.064 0.58 0.31 1.435 0.737v0c0.594 0.263 1.081 0.515 1.46 0.754v0c0.89 0.56 1.693 1.05 2.41 1.47v0l2.414 1.521 0.128 0.08c1.366 0.86 1.915 1.503 1.647 1.928z" fill="#ffffff" data-fill-palette-color="primary"></path><path d="M67.851 51.853c-0.265 0.236-0.461 0.358-0.59 0.365-0.128-0.002-0.328-0.12-0.599-0.354v0c-1.32-1.156-2.14-1.878-2.46-2.167v0l-1.085-0.944c-0.465 0.263-0.948 0.618-1.448 1.064v0l-1.005 0.79c-0.474 0.334-0.809 0.587-1.003 0.761v0c-0.105 0.094-0.127 0.194-0.067 0.302v0c0.045 0.05 0.059 0.082 0.044 0.095v0l0.423 0.579c0.265 0.338 0.739 1.064 1.42 2.179v0c0.338 0.56 0.563 1.028 0.675 1.404v0c0.132 0.43 0.136 0.7 0.011 0.812v0c-0.11 0.098-0.272 0.153-0.486 0.165-0.205 0.012-0.356-0.037-0.454-0.147v0l-0.044-0.095-0.044-0.109c-0.804-1.544-1.657-3.032-2.558-4.463v0l-1.15-1.936-1.484-2.311c0 0-0.427-0.674-1.28-2.022v0c-0.343-0.555-0.873-1.47-1.588-2.744v0c-0.835-1.427-1.421-2.385-1.759-2.874v0c-0.029-0.073-0.289-0.434-0.778-1.082v0c-0.532-0.737-0.914-1.29-1.144-1.659v0c-0.355-0.509-0.539-0.82-0.552-0.934v0l0.187-0.168c0.068-0.034 0.137-0.082 0.208-0.145v0c0.215-0.192 0.328-0.387 0.339-0.585v0c0.125-0.112 0.273-0.172 0.444-0.181 0.166-0.005 0.296 0.045 0.39 0.15v0c0.763 0.854 1.697 1.775 2.804 2.762v0c0.578 0.507 1.05 0.93 1.415 1.268v0c2.242 2.119 6.575 5.971 12.999 11.557v0l0.074 0.082c0.156 0.175 0.204 0.37 0.145 0.585zM62.077 48.389l0.263-0.235c-2.454-2.396-6.159-5.867-11.115-10.411v0l4.911 8.396c1.42 2.404 2.366 3.871 2.839 4.401v0c0.08 0.09 0.489-0.131 1.225-0.664 0.737-0.532 1.362-1.028 1.877-1.487z" fill="#ffffff" data-fill-palette-color="primary"></path><path d="M97.631 34.206c-0.17 0.078-0.324 0.072-0.462-0.02-0.132-0.094-0.291-0.257-0.479-0.487v0c-0.103-0.159-0.215-0.292-0.338-0.397v0l-0.015-0.104c-0.638-0.937-1.579-2.012-2.822-3.224v0l-1.352-1.423c-0.068-0.02-0.529-0.475-1.381-1.366v0l-0.613-0.658c-4.714-5.114-7.435-7.805-8.164-8.074v0c0.099 0.662 0.362 1.459 0.791 2.39v0c0.23 0.499 0.438 0.926 0.624 1.283v0l0.62 1.251 0.321 0.792c0.091 0.246 0.201 0.508 0.33 0.789v0c0.218 0.474 0.429 0.875 0.631 1.202v0c0.362 0.674 0.543 1.011 0.543 1.011v0l-0.101 0.046c1.661 3.607 2.653 5.561 2.976 5.862v0l1.341 2.911c0.166 0.137 0.314 0.346 0.443 0.626v0c0.078 0.17 0.091 0.349 0.036 0.536-0.063 0.184-0.179 0.315-0.349 0.393v0c-0.456 0.21-0.953-0.269-1.492-1.437v0l-0.41-1.06c-0.109-0.348-0.253-0.717-0.432-1.106v0c-0.476-1.034-1.222-2.574-2.239-4.621v0c-1.025-2.05-1.775-3.591-2.251-4.625v0c-0.289-0.627-0.698-1.603-1.228-2.93v0c-0.527-1.305-0.935-2.271-1.224-2.898v0l-0.193-0.42c-0.487-1.058-0.612-1.842-0.374-2.349v0l0.147 0.054 0.299-0.215c0.094-0.021 0.22-0.002 0.38 0.057v0c0.124 0.046 0.212 0.124 0.262 0.233v0l0.157 0.172c0.02 0.043 0.043 0.076 0.068 0.101 0.02 0.028 0.03 0.041 0.03 0.041v0c1.055 1.379 2.824 3.171 5.307 5.376v0c2.579 2.351 4.237 3.933 4.972 4.744v0c0.569 0.66 1.052 1.252 1.448 1.777v0c1.26 1.647 2.397 2.837 3.414 3.571v0l0.022-0.121c-1.711-5.029-4.175-11.035-7.391-18.019v0l-0.208-0.38c-0.072-0.092-0.149-0.227-0.23-0.402v0c-0.207-0.45-0.159-0.745 0.146-0.886v0c0.195-0.09 0.407-0.069 0.636 0.061 0.23 0.13 0.399 0.314 0.508 0.551v0l1 2.172-0.046 0.331c0.947 2.056 2.381 5.484 4.303 10.283 1.922 4.799 2.868 7.453 2.837 7.962v0l-0.484 0.389 0.012 0.027-0.049-0.011z" fill="#ffffff" data-fill-palette-color="primary"></path><path d="M154.949 27.794c-0.425-0.054-0.749-0.111-0.971-0.173-0.222-0.062-0.455-0.169-0.698-0.321v0c-0.267-0.182-0.454-0.412-0.561-0.688v0c0.035-0.279 0.182-0.402 0.441-0.37v0c0.259 0.033 0.581 0.158 0.965 0.375v0c0.355 0.234 0.662 0.367 0.922 0.4v0c0.518 0.065 1.023-0.087 1.515-0.457 0.485-0.371 0.891-0.883 1.217-1.538v0c0.642-1.289 1.028-2.452 1.159-3.489v0c0.146-1.156 0.127-2.346-0.056-3.571-0.184-1.218-0.479-2.382-0.886-3.493v0c-0.087-0.274-0.241-0.688-0.461-1.243v0c-0.442-1.257-0.775-2.234-0.998-2.93-0.222-0.703-0.402-1.468-0.541-2.296v0c-0.192-1.104-0.21-2.271-0.055-3.5v0c0.098-0.777 0.316-1.513 0.653-2.206 0.336-0.687 0.81-1.255 1.42-1.704v0c0.66-0.47 1.355-0.659 2.086-0.567v0c0.286 0.036 0.614 0.192 0.984 0.468 0.377 0.277 0.552 0.522 0.525 0.734v0c-0.023 0.186-0.108 0.27-0.254 0.252v0c-0.14-0.018-0.321-0.101-0.546-0.251v0c-0.198-0.146-0.389-0.231-0.575-0.255v0c-0.545-0.069-1.049 0.074-1.512 0.427-0.462 0.347-0.827 0.804-1.094 1.371v0c-0.222 0.478-0.371 1.013-0.445 1.604v0c-0.116 0.917-0.119 1.882-0.011 2.894 0.116 1.007 0.32 1.961 0.611 2.862v0l0.911 2.737 0.264 0.793c0.37 1.079 0.647 1.965 0.83 2.656 0.189 0.699 0.327 1.472 0.416 2.32v0c0.119 1.142 0.115 2.222-0.013 3.239v0c-0.173 1.369-0.704 2.716-1.593 4.041v0c-0.438 0.64-0.98 1.135-1.625 1.486-0.645 0.351-1.32 0.482-2.024 0.393z" fill="#ffffff" data-fill-palette-color="primary"></path><path d="M188.028 37.144c-0.35-0.153-0.677-0.432-0.983-0.837-0.299-0.402-0.514-0.814-0.642-1.236v0c-0.135-0.527 0.109-1.733 0.73-3.617 0.615-1.887 1.412-4.006 2.39-6.356v0c0.229-0.521 0.391-0.918 0.489-1.19v0c2.355-5.49 3.684-8.765 3.987-9.823v0l0.404-0.372c0.467 0.285 0.454 0.992-0.041 2.121v0l-3.697 8.711c-0.266 0.607-0.718 1.788-1.355 3.542v0c-0.538 1.578-0.979 2.759-1.323 3.544v0c-1.089 2.484-0.814 4.085 0.824 4.803v0c1 0.438 2.643-1.569 4.931-6.021v0l0.323-0.637c2.78-5.925 4.8-10.327 6.061-13.204v0l0.092-0.31c0.019-0.094 0.053-0.196 0.101-0.307v0c0.105-0.239 0.341-0.278 0.71-0.117v0c0.264 0.116 0.398 0.251 0.403 0.407v0c-0.054 0.24-0.2 0.632-0.44 1.179v0c-0.726 1.656-1.277 2.738-1.653 3.246v0l-0.048 0.209c-0.124 0.282-0.348 0.703-0.674 1.262v0l-0.641 1.288-0.141 0.322c-0.019 0.094-0.058 0.208-0.117 0.343v0c-0.271 0.503-0.512 0.993-0.722 1.471v0c-0.086 0.145-0.2 0.38-0.342 0.706v0c-0.952 2.054-1.787 3.834-2.505 5.34v0c-0.892 1.868-1.854 3.355-2.887 4.46v0c-1.089 1.183-2.167 1.54-3.234 1.073z" fill="#ffffff" data-fill-palette-color="primary"></path><path d="M214.402 53.939c-0.148-0.126-0.225-0.284-0.23-0.473-0.006-0.199 0.06-0.38 0.199-0.543v0l0.694-0.861c0.556-0.652 1.426-1.565 2.611-2.738v0c1.295-1.334 2.151-2.245 2.568-2.734v0l1.012-1.25c0.293-0.375 0.627-0.782 1-1.219v0c0.617-0.724 1.561-1.78 2.833-3.169v0c1.303-1.415 2.256-2.477 2.86-3.185v0l1.311-1.601 0.011-0.229 0.137-0.161c0.4-0.469 0.791-0.54 1.172-0.215v0c0.291 0.248 0.669 0.764 1.136 1.549 0.471 0.789 0.644 1.257 0.518 1.405v0l-0.065 0.077c-0.121 0.803-0.349 1.52-0.684 2.149-0.33 0.625-0.841 1.343-1.531 2.153v0c-1.129 1.325-2.193 2.279-3.192 2.863v0l0.03 0.026c-0.197 0.087-0.545 0.2-1.042 0.339v0l-0.864 0.24c0.109 0.533 0.07 1.142-0.118 1.827-0.193 0.68-0.454 1.271-0.785 1.772v0c-0.124 0.176-0.275 0.39-0.455 0.642-0.185 0.247-0.406 0.543-0.663 0.887v0l-0.577 0.723-0.325 0.382c-1.481 1.738-3.121 2.562-4.919 2.473v0c-0.93-0.045-1.81-0.421-2.642-1.129zM223.636 44.36l0.222 0.189c1.193 1.017 2.814 0.322 4.864-2.084v0c0.169-0.199 0.484-0.604 0.944-1.215v0l0.42-0.54-0.008-0.099c0.432-0.661 0.734-1.218 0.907-1.669v0c0.121-0.328 0.147-0.653 0.079-0.975-0.064-0.327-0.216-0.593-0.455-0.797v0c-0.398-0.339-1.609 0.679-3.633 3.054v0c-0.387 0.454-0.639 0.771-0.758 0.951v0l-0.462 0.543-0.789 0.925c-0.264 0.268-0.55 0.583-0.858 0.945v0l-0.28 0.329c0 0-0.028 0.069-0.084 0.206v0zM215.737 53.255c0.433 0.369 0.96 0.567 1.58 0.594 0.62 0.027 1.234-0.101 1.843-0.382 0.61-0.272 1.109-0.635 1.496-1.088v0l0.114-0.088 0.189-0.221 0.254-0.299c0.647-0.759 1.2-1.538 1.659-2.334v0c0.588-1.092 0.807-2.062 0.659-2.91v0c-0.091-0.482-0.335-0.893-0.732-1.231v0c-1.373 1.425-2.468 2.617-3.285 3.575v0l-0.535 0.627c-0.447 0.525-0.773 0.964-0.978 1.318v0c-0.231 0.085-0.648 0.482-1.252 1.19v0l-0.599 0.703z" fill="#ffffff" data-fill-palette-color="primary"></path><path d="M235.363 77.829c-0.238-0.357-0.163-0.692 0.223-1.006v0l0.393-0.262c0.11-0.041 0.234-0.108 0.373-0.2v0l0.039-0.195c0.522-0.122 0.981-0.316 1.377-0.579v0c0.457-0.305 1.091-0.772 1.903-1.402v0l1.917-1.362c0.992-0.661 2.498-1.62 4.517-2.877v0c1.813-1.096 3.335-2.054 4.566-2.874v0l1.742-1.246c0.509-0.396 1.089-0.811 1.741-1.245v0c0.295-0.197 0.556-0.27 0.783-0.22 0.221 0.054 0.43 0.229 0.627 0.524v0c0.134 0.201 0.178 0.4 0.134 0.599v0c0.009 0.05 0.162 0.363 0.457 0.939v0c0.269 0.537 0.464 1.023 0.584 1.457v0c0.132 0.451 0.109 0.736-0.069 0.856v0c-0.201 0.134-0.523 0.079-0.967-0.165v0c-0.381-1.38-0.729-2.307-1.044-2.78v0l-0.276-0.034c-0.163 0.141-0.582 0.436-1.257 0.886v0c-0.853 0.568-1.626 1.056-2.321 1.462v0c-0.711 0.442-1.494 0.947-2.346 1.515v0c-0.552 0.368-0.735 0.691-0.549 0.97v0l0.342 0.46c0.126 0.141 0.249 0.301 0.368 0.479v0c0.516 0.775 0.596 1.281 0.239 1.518v0c-0.217 0.145-0.435 0.217-0.652 0.218-0.212-0.004-0.383-0.103-0.512-0.299v0c-0.201-0.301-0.275-0.581-0.223-0.841v0l-0.484-1.053-0.101-0.151-0.245-0.042-0.092 0.062c-0.308 0.262-1.076 0.801-2.301 1.618v0c-0.775 0.516-1.487 0.975-2.138 1.376v0l-2.123 1.379c-0.769 0.513-1.542 1.068-2.318 1.666v0c-0.442 0.327-0.676 0.628-0.702 0.902-0.032 0.279 0.11 0.655 0.426 1.129v0l0.381 0.518c0.141 0.163 0.284 0.354 0.429 0.571v0c0.383 0.574 0.446 0.946 0.19 1.117v0c-0.357 0.238-0.825-0.078-1.405-0.947v0z" fill="#ffffff" data-fill-palette-color="primary"></path><path d="M250.163 110.624l0.007-0.531c0.213-0.365 0.901-0.912 2.066-1.641 1.164-0.73 2.493-1.484 3.986-2.264v0c1.233-0.604 2.429-1.281 3.587-2.03v0c1.039-0.64 1.518-1.084 1.437-1.332v0l-0.031-0.095c-0.163-0.503-0.401-0.704-0.713-0.603v0c-1.631 0.529-4.079 1.425-7.344 2.688v0c-2.01 0.75-3.168 1.238-3.475 1.464v0l-0.663-0.091-0.152-0.468 0.178-0.364c10.342-3.755 17.415-6.249 21.218-7.483v0c0.248-0.081 0.458-0.128 0.631-0.141 0.17-0.02 0.34 0.006 0.51 0.078v0c0.188 0.038 0.319 0.171 0.394 0.4v0c0.374 1.153 0.391 2.172 0.051 3.056-0.34 0.885-1.042 1.499-2.105 1.845v0l-2.475 0.802c-0.433 0.14-1.055 0.187-1.866 0.141-0.819-0.051-1.589-0.146-2.31-0.286v0l-0.993-0.164c-1.072 0.622-2.99 1.786-5.753 3.492-2.761 1.712-4.22 2.629-4.378 2.75v0c-0.017 0.034-0.065 0.081-0.144 0.142-0.077 0.067-0.187 0.184-0.33 0.35v0c-0.267 0.263-0.515 0.431-0.744 0.506v0c-0.312 0.101-0.509 0.028-0.589-0.221zM261.877 101.872c0.14 0.433 0.482 0.748 1.025 0.946 0.536 0.199 1.178 0.29 1.926 0.273v0c1.5-0.085 2.658-0.26 3.473-0.525v0c0.516-0.167 0.937-0.335 1.262-0.504 0.319-0.167 0.648-0.379 0.987-0.637v0c0.707-0.532 0.897-1.305 0.568-2.317v0c-0.037-0.115-0.166-0.175-0.386-0.182-0.214-0.008-0.423 0.021-0.626 0.087v0c-1.516 0.492-2.878 0.961-4.084 1.409v0c-1.217 0.416-2.583 0.869-4.1 1.362v0z" fill="#ffffff" data-fill-palette-color="primary"></path><path d="M8.497 185.867c-0.129-0.444 0.014-0.789 0.431-1.036v0l1.351-0.822c1.889-1.227 3.504-2.193 4.847-2.899v0c0.726-0.407 1.741-0.943 3.047-1.61v0c1.509-0.782 2.727-1.45 3.653-2.006v0l-0.301-0.278-0.329-0.375-12.836 3.814-0.502 0.146c-0.444 0.129-0.724-0.005-0.84-0.404v0c-0.052-0.18-0.041-0.344 0.035-0.492 0.077-0.141 0.197-0.235 0.357-0.282v0l0.502-0.146 6.761-1.897 3.26-0.877c3.923-1.045 7.253-1.967 9.992-2.765v0l4.311-1.256c0.199-0.058 0.357 0.112 0.473 0.51v0c0.169 0.579 0.172 1.164 0.01 1.756-0.169 0.593-0.478 1.112-0.928 1.557v0c-0.917 0.923-2.022 1.573-3.314 1.949v0c-1.022 0.298-2.2 0.397-3.533 0.297v0c-0.372-0.031-0.803-0.087-1.294-0.167-0.495-0.072-0.843-0.163-1.042-0.271v0c-1.58 0.97-4.022 2.417-7.325 4.342v0l-5.55 3.323c-0.063 0.046-0.182 0.095-0.355 0.145v0c-0.206 0.06-0.392 0.069-0.558 0.027-0.17-0.034-0.278-0.128-0.323-0.283zM22.294 176.479c0.052 0.18 0.349 0.421 0.891 0.724 0.548 0.301 0.992 0.496 1.332 0.585v0c0.362 0.069 0.871 0.067 1.526-0.005 0.656-0.072 1.228-0.18 1.716-0.323v0c0.913-0.266 1.804-0.693 2.671-1.281v0c0.508-0.315 0.89-0.681 1.145-1.097 0.257-0.41 0.331-0.804 0.221-1.184v0l-0.02-0.067c-0.033-0.018-0.056-0.05-0.07-0.095v0z" fill="#ffffff" data-fill-palette-color="primary"></path><path d="M23.441 217.299c-0.036-0.057-0.046-0.161-0.031-0.313 0.019-0.146 0.049-0.249 0.091-0.307v0c0.585-0.115 2.359-1.105 5.324-2.971v0c0.572-0.36 1.369-0.905 2.39-1.634v0l2-1.461 0.27-0.419 0.408-0.126c0.203-0.294 0.552-0.763 1.048-1.408 0.5-0.639 1.009-1.288 1.529-1.947v0c1.419-1.882 2.471-3.189 3.158-3.922v0c0.325-0.363 0.636-0.681 0.93-0.954v0l0.586 0.214c0.082 0.218-0.369 0.897-1.353 2.038v0c-0.676 0.837-1.361 1.64-2.056 2.409v0l-0.903 1.055c-0.997 1.118-1.466 1.769-1.406 1.953v0l0.611-0.218 0.107-0.15c0.298 0.034 1.118-0.209 2.461-0.73v0c1.532-0.608 2.846-1.091 3.942-1.449v0c1.26-0.437 1.97-0.528 2.131-0.272v0c0.061 0.096 0.085 0.204 0.073 0.322-0.007 0.115-0.05 0.198-0.129 0.247v0c-0.295 0.185-1.639 0.62-4.034 1.305v0c-1.143 0.308-2.198 0.632-3.164 0.97v0c-1.153 0.393-2.121 0.836-2.903 1.328v0c-0.138 0.221-0.275 0.375-0.41 0.461v0c-0.102 0.064-0.259 0.123-0.47 0.177v0c-0.215 0.048-0.382 0.11-0.501 0.184v0c-0.096 0.061-0.513 0.379-1.252 0.954v0c-0.477 0.411-0.903 0.734-1.277 0.97v0c-0.862 0.542-1.631 1.042-2.308 1.5v0l-2.355 1.482-0.11 0.07c-1.338 0.842-2.137 1.056-2.397 0.642z" fill="#ffffff" data-fill-palette-color="primary"></path><path d="M51.715 248.952c-0.26-0.232-0.398-0.409-0.415-0.532-0.016-0.122 0.074-0.329 0.271-0.62v0c0.974-1.402 1.581-2.274 1.823-2.614v0l0.803-1.155c-0.309-0.428-0.705-0.859-1.19-1.292v0l-0.883-0.882c-0.37-0.42-0.65-0.715-0.839-0.885v0c-0.105-0.094-0.205-0.107-0.301-0.04v0c-0.045 0.05-0.074 0.068-0.09 0.055v0l-0.52 0.478c-0.297 0.292-0.947 0.829-1.951 1.611v0c-0.5 0.389-0.928 0.657-1.285 0.806v0c-0.398 0.174-0.66 0.206-0.785 0.094v0c-0.1-0.089-0.17-0.237-0.21-0.443-0.035-0.202-0.006-0.355 0.088-0.461v0l0.097-0.048 0.089-0.055c1.407-0.952 2.757-1.942 4.052-2.968v0l1.739-1.329 2.081-1.697c0 0 0.603-0.485 1.81-1.454v0c0.504-0.394 1.33-1.007 2.479-1.841v0c1.297-0.96 2.165-1.635 2.603-2.025v0c0.065-0.032 0.385-0.321 0.961-0.866v0c0.654-0.592 1.147-1.023 1.478-1.293v0c0.456-0.401 0.739-0.611 0.847-0.631v0l0.179 0.161c0.042 0.064 0.097 0.127 0.168 0.19v0c0.205 0.183 0.406 0.269 0.605 0.257v0c0.12 0.107 0.192 0.243 0.215 0.408 0.028 0.16-0.005 0.292-0.099 0.396v0c-0.74 0.829-1.528 1.837-2.362 3.023v0c-0.43 0.612-0.791 1.117-1.081 1.512v0c-1.8 2.397-5.053 7.016-9.76 13.856v0l-0.067 0.075c-0.156 0.175-0.34 0.244-0.55 0.209zM54.429 242.986l0.255 0.227c2.056-2.644 5.012-6.613 8.868-11.906v0l-7.591 5.68c-2.175 1.631-3.494 2.707-3.958 3.226v0c-0.076 0.085 0.185 0.457 0.782 1.116 0.592 0.654 1.14 1.207 1.644 1.657z" fill="#ffffff" data-fill-palette-color="primary"></path><path d="M87.543 270.208c-0.164-0.076-0.253-0.194-0.268-0.355-0.014-0.161 0.003-0.382 0.051-0.663v0c0.06-0.179 0.086-0.347 0.078-0.506v0l0.079-0.074c0.286-1.07 0.485-2.446 0.596-4.127v0l0.191-1.903c-0.023-0.062 0.024-0.693 0.142-1.893v0l0.093-0.874c0.801-6.732 1.073-10.452 0.816-11.16v0c-0.434 0.493-0.859 1.193-1.277 2.099v0c-0.221 0.481-0.403 0.906-0.543 1.276v0l-0.54 1.245-0.376 0.744c-0.134 0.226-0.263 0.476-0.39 0.75v0c-0.213 0.462-0.375 0.871-0.487 1.224v0c-0.268 0.695-0.403 1.042-0.402 1.043v0l-0.092-0.042c-1.62 3.516-2.439 5.487-2.458 5.912v0l-1.311 2.847c0.007 0.21-0.053 0.451-0.179 0.725v0c-0.076 0.164-0.201 0.284-0.375 0.358-0.174 0.074-0.347 0.073-0.518-0.006v0c-0.444-0.205-0.404-0.876 0.12-2.013v0l0.531-0.983c0.188-0.297 0.369-0.634 0.543-1.011v0c0.465-1.01 1.134-2.541 2.006-4.595v0c0.863-2.05 1.529-3.583 1.997-4.599v0c0.28-0.608 0.745-1.53 1.395-2.764v0c0.632-1.213 1.09-2.126 1.373-2.741v0l0.189-0.41c0.474-1.028 0.972-1.613 1.495-1.756v0l0.058 0.138 0.34 0.079c0.074 0.064 0.142 0.172 0.203 0.326v0c0.04 0.122 0.036 0.234-0.011 0.337v0l-0.025 0.221c-0.02 0.043-0.03 0.082-0.032 0.118-0.002 0.036-0.003 0.054-0.003 0.054v0c-0.355 1.65-0.563 4.095-0.624 7.333v0c-0.107 3.401-0.227 5.632-0.361 6.691v0c-0.129 0.84-0.263 1.571-0.402 2.193v0c-0.422 1.973-0.584 3.573-0.485 4.798v0l0.11-0.071c2.639-4.447 5.526-10.074 8.661-16.881v0l0.14-0.4c0.029-0.112 0.083-0.253 0.162-0.423v0c0.202-0.438 0.449-0.59 0.741-0.455v0c0.195 0.09 0.315 0.26 0.362 0.509 0.053 0.253 0.026 0.495-0.08 0.727v0l-0.975 2.116-0.282 0.18c-0.922 2.001-2.551 5.233-4.886 9.694-2.338 4.468-3.706 6.853-4.104 7.157v0l-0.584-0.125-0.017 0.036-0.02-0.053z" fill="#ffffff" data-fill-palette-color="primary"></path><path d="M158.121 279.929c-0.412 0.052-0.73 0.075-0.953 0.07-0.223-0.005-0.469-0.052-0.736-0.139v0c-0.296-0.098-0.526-0.264-0.691-0.5v0c-0.035-0.279 0.073-0.435 0.325-0.467v0c0.252-0.032 0.585 0.007 0.997 0.117v0c0.389 0.14 0.71 0.194 0.962 0.162v0c0.505-0.064 0.947-0.329 1.327-0.796 0.372-0.472 0.629-1.055 0.771-1.748v0c0.292-1.374 0.374-2.565 0.247-3.575v0c-0.143-1.129-0.447-2.249-0.911-3.358-0.464-1.109-1.026-2.135-1.686-3.077v0c-0.145-0.238-0.389-0.595-0.733-1.072v0c-0.723-1.076-1.276-1.918-1.656-2.524-0.381-0.607-0.733-1.284-1.057-2.033v0c-0.457-0.995-0.761-2.091-0.912-3.287v0c-0.097-0.764-0.066-1.51 0.091-2.239 0.15-0.735 0.459-1.388 0.926-1.96v0c0.504-0.604 1.115-0.951 1.833-1.042v0c0.272-0.034 0.618 0.033 1.038 0.202 0.42 0.17 0.643 0.357 0.669 0.564v0c0.024 0.186-0.034 0.288-0.174 0.305v0c-0.14 0.018-0.329-0.016-0.57-0.1v0c-0.221-0.094-0.425-0.129-0.61-0.105v0c-0.532 0.067-0.972 0.322-1.321 0.765-0.356 0.443-0.59 0.966-0.703 1.567v0c-0.099 0.499-0.112 1.037-0.039 1.615v0c0.114 0.897 0.347 1.809 0.701 2.736 0.346 0.921 0.768 1.773 1.265 2.554v0l1.525 2.369 0.441 0.683c0.61 0.929 1.089 1.698 1.436 2.309 0.341 0.612 0.655 1.308 0.943 2.088v0c0.39 1.051 0.647 2.068 0.771 3.052v0c0.169 1.335-0.005 2.738-0.521 4.207v0c-0.261 0.715-0.65 1.314-1.169 1.798-0.526 0.485-1.134 0.771-1.826 0.859z" fill="#ffffff" data-fill-palette-color="primary"></path><path d="M197.883 268.219c-0.337 0.148-0.751 0.198-1.24 0.149-0.498-0.052-0.938-0.17-1.318-0.353v0c-0.47-0.254-1.174-1.225-2.113-2.913-0.944-1.685-1.937-3.655-2.979-5.911v0c-0.223-0.509-0.401-0.888-0.532-1.138v0c-2.382-5.31-3.852-8.424-4.409-9.342v0l-0.004-0.536c0.514-0.145 1.013 0.334 1.497 1.438v0l3.805 8.39c0.261 0.595 0.809 1.7 1.642 3.317v0c0.78 1.427 1.339 2.524 1.675 3.291v0c1.061 2.416 2.388 3.274 3.983 2.574v0c0.975-0.428 0.622-2.932-1.06-7.511v0l-0.251-0.647c-2.41-5.905-4.231-10.262-5.463-13.07v0l-0.162-0.269c-0.056-0.078-0.107-0.169-0.153-0.273v0c-0.102-0.233 0.027-0.429 0.389-0.588v0c0.251-0.11 0.436-0.115 0.554-0.013v0c0.134 0.19 0.319 0.551 0.553 1.085v0c0.708 1.613 1.122 2.722 1.241 3.328v0l0.113 0.181c0.121 0.276 0.276 0.713 0.465 1.31v0l0.497 1.306 0.141 0.322c0.056 0.078 0.111 0.178 0.165 0.301v0c0.181 0.528 0.374 1.028 0.582 1.5v0c0.046 0.155 0.139 0.392 0.279 0.711v0c0.843 2.036 1.568 3.806 2.177 5.309v0c0.752 1.879 1.182 3.551 1.292 5.017v0c0.132 1.566-0.324 2.578-1.366 3.035z" fill="#ffffff" data-fill-palette-color="primary"></path><path d="M230.165 247.378c-0.143 0.122-0.308 0.17-0.496 0.146-0.184-0.019-0.345-0.11-0.484-0.273v0l-0.729-0.792c-0.543-0.637-1.288-1.617-2.233-2.941v0c-1.082-1.454-1.828-2.42-2.236-2.899v0l-1.048-1.166c-0.315-0.338-0.653-0.719-1.014-1.141v0c-0.6-0.703-1.47-1.774-2.61-3.214v0c-1.171-1.475-2.049-2.556-2.636-3.244v0l-1.334-1.516-0.218-0.039-0.137-0.16c-0.391-0.458-0.401-0.846-0.029-1.164v0c0.28-0.239 0.839-0.523 1.678-0.85 0.829-0.329 1.304-0.422 1.425-0.28v0l0.066 0.077c0.751 0.24 1.404 0.567 1.96 0.981 0.547 0.414 1.159 1.018 1.837 1.813v0c1.1 1.289 1.855 2.458 2.267 3.507v0l0.023-0.02c0.056 0.199 0.111 0.548 0.166 1.047v0l0.11 0.87c0.529-0.02 1.105 0.114 1.728 0.401 0.633 0.288 1.162 0.629 1.586 1.023v0c0.15 0.145 0.333 0.323 0.549 0.535 0.211 0.216 0.464 0.476 0.758 0.78v0l0.61 0.668 0.313 0.367c1.448 1.696 1.987 3.402 1.619 5.115v0c-0.184 0.888-0.681 1.678-1.491 2.369zM222.369 237.021l0.214-0.182c1.167-0.996 0.748-2.668-1.256-5.016v0c-0.165-0.194-0.507-0.558-1.025-1.093v0l-0.461-0.478-0.093 0c-0.566-0.529-1.056-0.908-1.471-1.136v0c-0.295-0.171-0.603-0.247-0.922-0.229-0.324 0.012-0.601 0.116-0.83 0.312v0c-0.387 0.33 0.406 1.652 2.38 3.964v0c0.374 0.438 0.638 0.732 0.792 0.882v0l0.45 0.528 0.77 0.901c0.224 0.293 0.486 0.616 0.786 0.967v0l0.273 0.321c0 0 0.061 0.04 0.183 0.122v0zM229.705 245.988c0.423-0.361 0.695-0.836 0.818-1.425 0.118-0.594 0.093-1.206-0.076-1.837-0.174-0.627-0.45-1.161-0.828-1.604v0l-0.06-0.133-0.183-0.214-0.248-0.291c-0.63-0.739-1.294-1.392-1.99-1.96v0c-0.959-0.731-1.859-1.09-2.701-1.075v0c-0.481 0.014-0.915 0.187-1.302 0.516v0c1.161 1.536 2.142 2.772 2.942 3.71v0l0.522 0.612c0.435 0.509 0.806 0.893 1.113 1.149v0c0.048 0.232 0.366 0.692 0.953 1.38v0l0.586 0.687z" fill="#ffffff" data-fill-palette-color="primary"></path><path d="M255.696 218.511c-0.23 0.346-0.561 0.403-0.995 0.171v0l-0.376-0.25c-0.084-0.08-0.192-0.164-0.327-0.253v0l-0.195 0.039c-0.303-0.427-0.647-0.768-1.032-1.024v0c-0.446-0.297-1.103-0.693-1.971-1.19v0l-1.946-1.21c-0.965-0.641-2.396-1.633-4.294-2.976v0c-1.666-1.22-3.098-2.229-4.297-3.026v0l-1.771-1.093c-0.55-0.31-1.143-0.676-1.779-1.098v0c-0.29-0.193-0.453-0.402-0.488-0.626-0.034-0.215 0.046-0.468 0.239-0.758v0c0.126-0.19 0.287-0.304 0.481-0.344v0c0.043-0.028 0.266-0.285 0.671-0.772v0c0.38-0.439 0.744-0.792 1.091-1.06v0c0.356-0.294 0.624-0.382 0.802-0.263v0c0.19 0.126 0.26 0.438 0.21 0.936v0c-1.099 0.854-1.802 1.512-2.11 1.975v0l0.081 0.259c0.184 0.098 0.605 0.366 1.263 0.804v0c0.831 0.552 1.56 1.065 2.187 1.538v0c0.669 0.469 1.417 0.978 2.242 1.527v0c0.541 0.36 0.9 0.406 1.078 0.138v0l0.286-0.486c0.078-0.165 0.174-0.335 0.289-0.507v0c0.504-0.758 0.932-1.021 1.284-0.787v0c0.212 0.141 0.357 0.31 0.435 0.506 0.082 0.191 0.058 0.384-0.072 0.58v0c-0.193 0.29-0.417 0.458-0.673 0.505v0l-0.76 0.834-0.1 0.151 0.048 0.236 0.092 0.061c0.349 0.176 1.124 0.663 2.322 1.46v0c0.753 0.501 1.433 0.965 2.041 1.394v0l2.036 1.401c0.753 0.501 1.546 0.983 2.378 1.449v0c0.457 0.28 0.816 0.382 1.076 0.305 0.26-0.076 0.544-0.346 0.852-0.809v0l0.317-0.549c0.098-0.184 0.218-0.382 0.358-0.594v0c0.375-0.563 0.687-0.761 0.939-0.594v0c0.346 0.23 0.235 0.771-0.333 1.624v0z" fill="#ffffff" data-fill-palette-color="primary"></path><path d="M273.609 179.847l-0.314 0.416c-0.371 0.169-1.225 0.21-2.563 0.124-1.335-0.093-2.82-0.256-4.455-0.488v0c-1.313-0.227-2.641-0.374-3.985-0.442v0c-1.187-0.095-1.819-0.021-1.897 0.222v0l-0.034 0.105c-0.156 0.484-0.082 0.776 0.224 0.875v0c1.593 0.514 4.041 1.205 7.343 2.074v0c2.011 0.55 3.2 0.825 3.566 0.823v0l0.477 0.45-0.148 0.459-0.354 0.181c-10.31-2.94-17.317-5.008-21.02-6.203v0c-0.242-0.078-0.438-0.159-0.587-0.242-0.143-0.081-0.262-0.201-0.359-0.358v0c-0.126-0.132-0.153-0.31-0.082-0.533v0c0.364-1.128 0.933-1.944 1.708-2.447 0.768-0.505 1.672-0.59 2.711-0.255v0l2.419 0.781c0.421 0.136 0.937 0.454 1.549 0.954 0.619 0.502 1.175 1.016 1.667 1.54v0l0.684 0.696c1.206 0.122 3.387 0.298 6.542 0.528 3.158 0.224 4.833 0.332 5.026 0.323v0c0.034-0.017 0.1-0.027 0.2-0.03 0.1-0.003 0.254-0.034 0.463-0.094v0c0.362-0.052 0.651-0.043 0.867 0.027v0c0.312 0.101 0.429 0.272 0.352 0.514zM259.35 180.07c0.134-0.414 0.044-0.855-0.27-1.322-0.307-0.465-0.761-0.903-1.36-1.315v0c-1.236-0.793-2.249-1.317-3.039-1.572v0c-0.51-0.165-0.94-0.272-1.29-0.321-0.348-0.056-0.731-0.078-1.15-0.065v0c-0.858 0.019-1.447 0.525-1.768 1.52v0c-0.035 0.108 0.033 0.225 0.204 0.35 0.162 0.13 0.342 0.227 0.539 0.291v0c1.479 0.477 2.821 0.886 4.028 1.225v0c1.2 0.359 2.539 0.777 4.018 1.255v0z" fill="#ffffff" data-fill-palette-color="primary"></path><path d="M2.953 141.47c0-5.784 4.689-10.472 10.472-10.472 5.784 0 10.472 4.689 10.472 10.472 0 5.784-4.689 10.472-10.472 10.472-5.784 0-10.472-4.689-10.472-10.472z" fill="#ffffff" data-fill-palette-color="primary"></path><path d="M256.103 141.47c0-5.784 4.689-10.472 10.472-10.472 5.784 0 10.472 4.689 10.472 10.472 0 5.784-4.689 10.472-10.472 10.472-5.784 0-10.472-4.689-10.472-10.472z" fill="#ffffff" data-fill-palette-color="primary"></path></g></svg></g></svg></g></svg></g></svg></g><defs></defs></svg><rect width="280" height="280" fill="none" stroke="none" visibility="hidden"></rect></g></svg></g></svg>